<svg width="106" height="98" viewBox="0 0 106 98" fill="none" xmlns="http://www.w3.org/2000/svg">
<path d="M32.4158 20.6977C32.4158 9.26669 41.6316 0 52.9999 0C64.3682 0 73.584 9.26668 73.584 20.6977V58.3971C73.584 69.8281 64.3682 79.0948 52.9999 79.0948C41.6316 79.0948 32.4158 69.8281 32.4158 58.3971V20.6977Z" fill="#27B376"/>
<path d="M30.9902 94.7786C21.1097 100.529 8.47558 97.1164 2.77107 87.1568C-2.93343 77.1971 0.451877 64.4618 10.3324 58.7116L42.9181 39.7474C52.7986 33.9972 65.4327 37.4097 71.1372 47.3693C76.8417 57.329 73.4564 70.0643 63.5759 75.8145L30.9902 94.7786Z" fill="#2F64CF"/>
<path d="M95.7128 58.7116C105.55 64.4618 108.92 77.1971 103.241 87.1568C97.5615 97.1164 84.9828 100.529 75.1456 94.7786L42.7028 75.8145C32.8657 70.0643 29.4952 57.329 35.1747 47.3693C40.8542 37.4097 53.4329 33.9972 63.27 39.7474L95.7128 58.7116Z" fill="#BA444F"/>
</svg>
