<svg width="131" height="21" viewBox="0 0 131 21" fill="none" xmlns="http://www.w3.org/2000/svg">
<path d="M6.72791 4.29575C6.72791 1.92328 8.64062 0 11.0001 0C13.3595 0 15.2723 1.92327 15.2723 4.29575V12.1202C15.2723 14.4926 13.3595 16.4159 11.0001 16.4159C8.64062 16.4159 6.72791 14.4926 6.72791 12.1202V4.29575Z" fill="#27B376"/>
<path d="M6.43193 19.6711C4.38126 20.8645 1.75908 20.1563 0.575129 18.0892C-0.608825 16.0221 0.0937858 13.3789 2.14445 12.1854L8.90753 8.24948C10.9582 7.05604 13.5804 7.76428 14.7643 9.83137C15.9483 11.8985 15.2457 14.5417 13.195 15.7351L6.43193 19.6711Z" fill="#2F64CF"/>
<path d="M19.865 12.1854C21.9067 13.3789 22.6062 16.0221 21.4275 18.0892C20.2487 20.1563 17.638 20.8645 15.5964 19.6711L8.86295 15.7351C6.82128 14.5417 6.12175 11.8985 7.30051 9.83137C8.47927 7.76428 11.09 7.05604 13.1316 8.24948L19.865 12.1854Z" fill="#BA444F"/>
<path d="M37.25 4.625L39.1094 8.40625L40.9688 4.625H44.0938L40.9219 10.2656L44.1797 16H41.0234L39.1094 12.1484L37.1953 16H34.0312L37.2969 10.2656L34.1172 4.625H37.25Z" fill="white"/>
<path d="M47.1484 4.625L49.2422 9.5625L51.3438 4.625H54.2969L50.6406 11.9141V16H47.8516V11.9141L44.1875 4.625H47.1484Z" fill="white"/>
<path d="M63.6484 13.8906V16H55.4141V13.8906H63.6484ZM63.5938 6.03125L56.7734 16H54.7891V14.5547L61.6875 4.625H63.5938V6.03125ZM62.7109 4.625V6.74219H54.75V4.625H62.7109Z" fill="white"/>
<path d="M73.7031 7.01562L70.9297 16H67.9844L72.1641 4.625H74.0312L73.7031 7.01562ZM76 16L73.2188 7.01562L72.8594 4.625H74.75L78.9531 16H76ZM75.8906 11.7578V13.875H70.0547V11.7578H75.8906Z" fill="white"/>
<path d="M82.3203 9.64062V16H79.6875V7.54688H82.1484L82.3203 9.64062ZM84.8203 7.48438L84.7734 9.92969C84.6693 9.91927 84.5286 9.90625 84.3516 9.89062C84.1745 9.875 84.026 9.86719 83.9062 9.86719C83.599 9.86719 83.3333 9.90365 83.1094 9.97656C82.8906 10.0443 82.7083 10.1484 82.5625 10.2891C82.4219 10.4245 82.3177 10.5964 82.25 10.8047C82.1875 11.013 82.1589 11.2552 82.1641 11.5312L81.6875 11.2188C81.6875 10.651 81.7422 10.1354 81.8516 9.67188C81.9661 9.20312 82.1276 8.79948 82.3359 8.46094C82.5443 8.11719 82.7969 7.85417 83.0938 7.67188C83.3906 7.48438 83.724 7.39062 84.0938 7.39062C84.224 7.39062 84.3516 7.39844 84.4766 7.41406C84.6068 7.42969 84.7214 7.45312 84.8203 7.48438Z" fill="white"/>
<path d="M90.5703 7.54688V9.375H85.4766V7.54688H90.5703ZM86.5469 5.44531H89.1797V13.2422C89.1797 13.4661 89.2057 13.6406 89.2578 13.7656C89.3099 13.8854 89.3984 13.9714 89.5234 14.0234C89.6536 14.0703 89.8255 14.0938 90.0391 14.0938C90.1901 14.0938 90.3151 14.0911 90.4141 14.0859C90.513 14.0755 90.6068 14.0625 90.6953 14.0469V15.9297C90.4714 16.0026 90.237 16.0573 89.9922 16.0938C89.7474 16.1354 89.487 16.1562 89.2109 16.1562C88.6484 16.1562 88.1667 16.0677 87.7656 15.8906C87.3698 15.7135 87.0677 15.4349 86.8594 15.0547C86.651 14.6745 86.5469 14.1797 86.5469 13.5703V5.44531Z" fill="white"/>
<path d="M100.266 12.1406H97.4375V10.0234H100.266C100.651 10.0234 100.964 9.95833 101.203 9.82812C101.443 9.69792 101.617 9.51823 101.727 9.28906C101.841 9.05469 101.898 8.79167 101.898 8.5C101.898 8.1875 101.841 7.89844 101.727 7.63281C101.617 7.36719 101.443 7.15365 101.203 6.99219C100.964 6.82552 100.651 6.74219 100.266 6.74219H98.4688V16H95.7266V4.625H100.266C101.177 4.625 101.961 4.79167 102.617 5.125C103.279 5.45833 103.786 5.91667 104.141 6.5C104.495 7.07812 104.672 7.73958 104.672 8.48438C104.672 9.21875 104.495 9.85938 104.141 10.4062C103.786 10.9531 103.279 11.3802 102.617 11.6875C101.961 11.9896 101.177 12.1406 100.266 12.1406Z" fill="white"/>
<path d="M108.68 9.64062V16H106.047V7.54688H108.508L108.68 9.64062ZM111.18 7.48438L111.133 9.92969C111.029 9.91927 110.888 9.90625 110.711 9.89062C110.534 9.875 110.385 9.86719 110.266 9.86719C109.958 9.86719 109.693 9.90365 109.469 9.97656C109.25 10.0443 109.068 10.1484 108.922 10.2891C108.781 10.4245 108.677 10.5964 108.609 10.8047C108.547 11.013 108.518 11.2552 108.523 11.5312L108.047 11.2188C108.047 10.651 108.102 10.1354 108.211 9.67188C108.326 9.20312 108.487 8.79948 108.695 8.46094C108.904 8.11719 109.156 7.85417 109.453 7.67188C109.75 7.48438 110.083 7.39062 110.453 7.39062C110.583 7.39062 110.711 7.39844 110.836 7.41406C110.966 7.42969 111.081 7.45312 111.18 7.48438Z" fill="white"/>
<path d="M114.867 7.54688V16H112.227V7.54688H114.867ZM112.07 5.36719C112.07 4.99219 112.206 4.6849 112.477 4.44531C112.747 4.20573 113.099 4.08594 113.531 4.08594C113.964 4.08594 114.315 4.20573 114.586 4.44531C114.857 4.6849 114.992 4.99219 114.992 5.36719C114.992 5.74219 114.857 6.04948 114.586 6.28906C114.315 6.52865 113.964 6.64844 113.531 6.64844C113.099 6.64844 112.747 6.52865 112.477 6.28906C112.206 6.04948 112.07 5.74219 112.07 5.36719Z" fill="white"/>
<path d="M119.078 9.35156V16H116.445V7.54688H118.914L119.078 9.35156ZM118.766 11.4844L118.148 11.5C118.148 10.8542 118.227 10.2786 118.383 9.77344C118.539 9.26302 118.76 8.83073 119.047 8.47656C119.333 8.1224 119.674 7.85417 120.07 7.67188C120.471 7.48438 120.917 7.39062 121.406 7.39062C121.797 7.39062 122.154 7.44792 122.477 7.5625C122.805 7.67708 123.086 7.86198 123.32 8.11719C123.56 8.3724 123.742 8.71094 123.867 9.13281C123.997 9.54948 124.062 10.0651 124.062 10.6797V16H121.414V10.6719C121.414 10.3333 121.367 10.0755 121.273 9.89844C121.18 9.71615 121.044 9.59115 120.867 9.52344C120.69 9.45573 120.474 9.42188 120.219 9.42188C119.948 9.42188 119.719 9.47396 119.531 9.57812C119.344 9.68229 119.193 9.82812 119.078 10.0156C118.969 10.1979 118.888 10.4141 118.836 10.6641C118.789 10.9141 118.766 11.1875 118.766 11.4844Z" fill="white"/>
<path d="M129.977 7.54688V9.375H124.883V7.54688H129.977ZM125.953 5.44531H128.586V13.2422C128.586 13.4661 128.612 13.6406 128.664 13.7656C128.716 13.8854 128.805 13.9714 128.93 14.0234C129.06 14.0703 129.232 14.0938 129.445 14.0938C129.596 14.0938 129.721 14.0911 129.82 14.0859C129.919 14.0755 130.013 14.0625 130.102 14.0469V15.9297C129.878 16.0026 129.643 16.0573 129.398 16.0938C129.154 16.1354 128.893 16.1562 128.617 16.1562C128.055 16.1562 127.573 16.0677 127.172 15.8906C126.776 15.7135 126.474 15.4349 126.266 15.0547C126.057 14.6745 125.953 14.1797 125.953 13.5703V5.44531Z" fill="white"/>
</svg>
